<svg xmlns="http://www.w3.org/2000/svg" width="250" height="39" viewBox="0 0 250 39" fill="none">
    <g id="by">
        <g id="Group">
            <g id="Group 1554">
                <g id="Group_2">
                    <path id="Vector"
                        d="M45.858 2.58919C45.4353 1.05707 44.0353 0.000435647 42.5032 0.0268515C41.0767 0.0532674 39.8087 0.977821 39.3068 2.37786L27.8687 28.9786C23.9856 20.1029 20.0761 11.2272 16.1929 2.37786C15.7175 0.977821 14.3966 0.0268515 12.9438 0.0268515C11.4117 0.0268515 10.0645 1.08348 9.66823 2.58919C6.4455 14.4499 3.22274 26.3106 0 38.1714C2.19252 38.1714 4.35863 38.1714 6.55115 38.1714C8.92858 29.3485 11.2796 20.5256 13.657 11.7027L24.3819 35.9788C24.963 37.2204 26.1517 38.0657 27.4725 38.1714C29.0046 38.277 30.4575 37.4053 31.1443 35.9788L41.6578 11.7027C44.0352 20.5256 46.3863 29.3485 48.7637 38.1714C51.0355 38.1714 53.3073 38.1714 55.579 38.1714C52.3035 26.2842 49.0807 14.4235 45.858 2.58919Z"
                        fill="#CB0101" />
                    <path id="Vector_2" d="M62.9224 38.1445V0H69.5792V38.1445H62.9224Z"
                        fill="#CB0101" />
                    <path id="Vector_3"
                        d="M77.5569 38.1176V31.4608H105.743C108.965 31.5137 111.396 28.7664 111.131 25.9928C110.894 23.5361 108.569 21.4492 105.743 21.5549H88.5195C81.7042 21.687 76.4475 15.8755 76.9758 9.82626C77.4513 4.35817 82.5231 -0.211776 88.6516 0.0259672H115.649V6.65635H88.5988C86.01 6.60352 83.8439 8.61113 83.6854 11.015C83.5005 13.6301 85.7194 16.0076 88.5195 16.0076H105.716C106.535 15.9811 111.448 15.9019 114.724 19.6001C118.554 23.8795 118.264 31.091 114.249 35.0798C111.052 38.2497 106.72 38.1969 105.743 38.1705L77.5569 38.1176Z"
                        fill="#CB0101" />
                    <g id="Group_3">
                        <path id="Vector_4" d="M131.816 0H130.654V38.1445H131.816V0Z" fill="#4A4A49" />
                    </g>
                    <path id="Vector_5"
                        d="M162.591 18.5439H155.749V21.8195H158.998V24.3026C158.707 24.5932 155.987 27.1555 152.315 26.4423C151.945 26.363 149.805 25.9404 148.22 24.012C145.896 21.2384 145.79 16.642 148.22 13.9476C149.673 12.3362 151.575 11.9135 152.315 11.7815C156.066 11.0418 158.998 13.2343 159.5 13.6306L161.428 10.7513C160.636 10.1173 157.809 7.97758 153.662 8.05683C152.605 8.08325 148.775 8.18891 145.711 11.2796C142.62 14.4231 142.541 18.359 142.594 19.5741C142.62 20.6308 142.779 23.9592 145.447 26.7593C148.432 29.9292 152.315 30.0348 153.002 30.0348C156.119 30.0613 158.364 28.6876 159.183 28.1329C159.183 28.7669 159.183 29.4009 159.183 30.0348C160.319 30.0348 161.455 30.0348 162.591 30.0348C162.591 26.231 162.591 22.3742 162.591 18.5439Z"
                        fill="#4A4A49" />
                    <path id="Vector_6"
                        d="M178.624 20.6834C179.285 20.4456 180.209 19.9701 180.975 19.0456C182.824 16.8531 182.613 13.2869 181.055 11.0944C179.575 9.00756 177.198 8.08301 174.081 8.08301C171.703 8.08301 169.3 8.08301 166.922 8.08301V27.3666V29.9818V30.0874H170.99V29.9818V27.3666V21.8193H174.847L179.258 30.0874C180.79 30.0874 182.349 30.0874 183.881 30.0874C182.138 26.9439 180.394 23.8269 178.624 20.6834ZM178.175 15.0568C178.175 15.2417 178.202 16.1134 177.858 16.8267C177.33 17.8569 176.036 18.4644 174.609 18.4909C173.394 18.4909 172.179 18.4909 170.99 18.4909V11.6227C172.02 11.6227 173.024 11.6227 174.054 11.6227C175.771 11.6227 177.277 12.336 177.885 13.5511C178.149 14.1587 178.175 14.8191 178.175 15.0568Z"
                        fill="#4A4A49" />
                    <path id="Vector_7"
                        d="M207.946 18.9935C207.998 25.0691 202.953 30.141 196.877 30.0617C190.854 29.9825 186.02 24.8842 186.1 18.9407C186.152 13.1027 190.907 8.18939 196.772 8.05731C202.794 7.95165 207.893 12.9443 207.946 18.9935ZM196.877 26.6541C200.972 26.6541 204.089 22.903 203.93 18.9935C203.798 15.3745 200.84 11.9404 196.877 11.9404C192.941 11.9404 189.956 15.3481 189.824 18.9935C189.666 22.903 192.783 26.6541 196.877 26.6541Z"
                        fill="#4A4A49" />
                    <path id="Vector_8"
                        d="M211.961 8.08301H215.844V21.8721C215.924 24.5929 218.222 26.7062 220.81 26.5741C223.241 26.4684 225.248 24.408 225.328 21.8721V8.08301H229.211V21.8721C228.92 26.3892 225.248 29.9289 220.863 30.061C216.293 30.1931 212.252 26.5741 211.961 21.8721V8.08301Z"
                        fill="#4A4A49" />
                    <path id="Vector_9"
                        d="M234.467 8.08301H242.973C246.909 8.21509 250.052 11.4907 250 15.3738C249.947 19.1777 246.83 22.3476 242.973 22.4532H238.482V30.061H234.467V8.08301ZM242.233 19.0456C244.558 19.1248 246.433 17.1965 246.301 15.0304C246.196 13.0492 244.426 11.3586 242.26 11.4378H238.456V19.0456H242.233Z"
                        fill="#4A4A49" />
                </g>
            </g>
        </g>
    </g>
    <script xmlns="" />
</svg>