<?xml version="1.0" encoding="UTF-8"?>
<svg xmlns="http://www.w3.org/2000/svg"
  width="28.2" height="40.9" viewBox="0 0 2820 4090" preserveAspectRatio="xMidYMid meet">
  <g fill="#2d56b3" stroke="none">
    <path
      d="M2425 157 c-161 4 -175 10 -175 77 0 23 -3 52 -7 64 -7 29 -22 28 -178 -18 -156 -45 -456 -88 -587 -84 -182 6 -374 48 -495 107 -72 34 -180 122 -235 189 -45 54 -93 173 -103 249 -4 31 -10 61 -13 66 -4 6 -36 24 -71 42 -147 72 -275 200 -312 312 -7 19 -15 38 -19 44 -45 62 -110 466 -96 597 21 205 84 503 126 593 5 11 19 51 32 90 32 101 112 251 167 315 25 30 54 66 63 80 8 14 46 58 84 97 67 69 73 73 169 104 90 29 115 33 252 37 97 3 156 8 161 16 5 6 12 64 14 129 4 95 3 121 -9 133 -8 8 -17 14 -21 14 -4 1 -109 3 -233 6 -196 5 -227 4 -238 -10 -7 -8 -21 -69 -31 -135 -22 -143 -29 -159 -73 -163 -64 -6 -188 8 -198 23 -14 23 -10 74 15 182 13 56 29 129 36 162 7 33 21 94 31 135 9 41 25 113 33 160 37 190 45 202 141 194 90 -8 105 -17 105 -61 0 -21 -4 -53 -10 -72 -5 -19 -12 -67 -16 -107 l-7 -73 34 -5 c62 -10 441 -15 465 -6 21 9 22 14 26 135 4 164 5 165 152 165 155 0 385 -19 446 -36 106 -30 191 -79 272 -156 118 -113 152 -198 123 -313 -29 -112 -56 -165 -137 -266 -59 -72 -56 -76 73 -84 135 -9 137 -12 151 -151 13 -130 17 -127 -141 -120 -294 13 -689 18 -695 8 -3 -6 -9 -210 -12 -454 -4 -354 -2 -446 8 -460 7 -9 45 -23 83 -32 154 -33 377 -106 472 -155 34 -17 67 -31 73 -31 6 0 10 30 10 75 0 57 4 76 16 83 19 11 273 3 296 -9 23 -12 36 -65 44 -174 3 -50 10 -106 15 -125 8 -33 62 -438 95 -715 8 -71 17 -132 19 -135 2 -3 11 -64 20 -135 9 -72 23 -168 31 -214 20 -116 18 -138 -11 -166 -17 -18 -33 -24 -57 -23 -18 1 -96 4 -173 5z m-355 383 c154 34 150 31 150 110 l0 68 49 39 c49 39 138 139 159 180 35 65 5 119 -155 278 l-102 101 -7 62 c-4 43 -13 67 -28 81 -11 11 -73 34 -136 51 -99 28 -137 33 -268 37 -180 6 -252 -7 -372 -67 -125 -64 -250 -204 -213 -241 5 -5 89 -10 187 -10 l177 -2 43 43 c158 159 429 82 744 -211 80 -75 71 -103 -63 -206 -99 -76 -285 -146 -390 -147 -98 -1 -138 9 -185 49 -41 35 -43 35 -143 36 -342 5 -380 4 -385 -10 -7 -20 121 -137 186 -170 63 -31 128 -54 236 -82 99 -26 377 -20 516 11z m-1355 882 c8 28 15 56 15 62 0 6 22 52 48 102 64 125 126 189 227 237 44 21 91 44 105 50 29 15 27 -1 55 507 20 368 20 434 -1 454 -29 30 -177 14 -269 -28 -80 -36 -248 -216 -276 -296 -5 -14 -15 -36 -23 -50 -40 -72 -81 -230 -101 -390 -8 -69 -20 -145 -25 -170 -10 -46 -8 -165 5 -235 17 -92 125 -263 180 -285 37 -16 44 -10 60 42z m909 1698 c162 37 274 109 350 224 31 47 36 62 36 114 0 53 -4 66 -33 103 -78 103 -185 141 -370 132 l-115 -6 -6 -36 c-3 -20 -5 -145 -6 -278 -1 -303 -9 -289 144 -253z" />
  </g>
</svg>